<svg version="1.0" xmlns="http://www.w3.org/2000/svg" width="20px" height="20px" viewBox="0 0 512.000000 512.000000" preserveAspectRatio="xMidYMid meet">
	<g transform="translate(0.000000,512.000000) scale(0.100000,-0.100000)" fill="#000000" stroke="none">
		<path
			d="M3780 4674 c-132 -34 -168 -62 -435 -325 l-250 -247 -50 45 c-27 25
				-79 59 -115 77 -61 29 -72 31 -175 31 -104 0 -114 -2 -175 -32 -83 -41 -152
				-110 -193 -193 -30 -60 -32 -72 -32 -170 0 -97 2 -110 31 -170 17 -36 53 -89
				79 -118 l48 -54 -885 -886 c-680 -683 -891 -899 -912 -939 -50 -96 -68 -162
				-71 -266 l-4 -99 -84 -87 c-65 -67 -89 -101 -106 -145 -61 -164 11 -347 168
				-423 48 -24 68 -28 141 -28 115 1 159 22 269 130 l87 85 85 0 c47 0 111 7 144
				15 142 37 112 10 1070 966 l890 888 55 -51 c209 -194 533 -135 653 119 30 63
				32 76 32 173 0 92 -3 112 -26 160 -14 30 -49 84 -78 118 l-53 64 249 251 c213
				215 255 262 282 317 35 73 61 180 61 255 0 249 -176 475 -420 540 -69 19 -208
				18 -280 -1z m274 -225 c168 -63 253 -264 186 -444 -21 -56 -44 -82 -316 -356
				-286 -287 -294 -296 -294 -335 0 -49 13 -69 106 -164 109 -112 126 -171 78
				-268 -50 -101 -169 -136 -264 -80 -25 15 -253 235 -507 490 -487 489 -483 484
				-483 573 1 65 61 151 123 174 36 14 108 14 143 0 16 -5 70 -50 120 -99 94 -91
				123 -107 172 -95 17 4 127 106 312 289 157 156 300 291 317 300 97 49 203 54
				307 15z m-1769 -2439 c-716 -716 -880 -875 -930 -902 -59 -33 -62 -33 -192
				-33 l-132 0 -108 -106 c-120 -118 -147 -132 -207 -104 -41 20 -76 70 -76 109
				0 43 23 75 124 175 53 53 98 106 101 120 3 14 2 53 -3 86 -10 77 0 152 28 212
				18 38 208 234 899 926 l876 877 245 -245 245 -245 -870 -870z"
		/>
	</g>
</svg>
